<?xml version="1.0" encoding="iso-8859-1"?>
<!-- Generator: Adobe Illustrator 19.0.0, SVG Export Plug-In . SVG Version: 6.00 Build 0)  -->
<svg version="1.1" id="Capa_1" xmlns="http://www.w3.org/2000/svg" xmlns:xlink="http://www.w3.org/1999/xlink" x="0px" y="0px"
	 viewBox="0 0 512 512" style="enable-background:new 0 0 512 512;" xml:space="preserve" fill="#f5f5f5">
<g>
	<g>
		<g>
			<path d="M271,416.05l228.517-228.6c16.617-16.658,16.617-43.622,0-60.279L384.825,12.483c-16.644-16.644-43.631-16.644-60.275,0
				L96.037,241.079l-0.009,0.005L12.483,324.55c-16.617,16.658-16.617,43.622,0,60.279l114.692,114.687
				c6.265,6.253,14.336,10.379,23.074,11.794c1.059,0.455,2.199,0.689,3.351,0.69h274.859c4.713,0,8.533-3.82,8.533-8.533
				s-3.82-8.533-8.533-8.533H192.043l17.084-17.067H384c4.713,0,8.533-3.82,8.533-8.533s-3.82-8.533-8.533-8.533H226.209
				l17.084-17.067H384c4.713,0,8.533-3.82,8.533-8.533s-3.82-8.533-8.533-8.533H260.377l10.615-10.604L271,416.05z M175.384,487.45
				c-10.115,9.65-26.027,9.65-36.142,0L24.55,372.763c-9.963-9.988-9.963-26.154,0-36.142l77.508-77.429l150.825,150.829
				L175.384,487.45z M114.125,247.125L336.617,24.55c10.115-9.65,26.027-9.65,36.142,0L487.45,139.238
				c9.962,9.989,9.962,26.157,0,36.146L264.958,397.954L114.125,247.125z"/>
			<path d="M364.433,45.167c-3.362-3.302-8.764-3.254-12.066,0.108c-3.26,3.319-3.26,8.638,0,11.958l102.4,102.4
				c3.362,3.302,8.764,3.254,12.066-0.108c3.26-3.319,3.26-8.639,0-11.958L364.433,45.167z"/>
		</g>
	</g>
</g>
<g>
</g>
<g>
</g>
<g>
</g>
<g>
</g>
<g>
</g>
<g>
</g>
<g>
</g>
<g>
</g>
<g>
</g>
<g>
</g>
<g>
</g>
<g>
</g>
<g>
</g>
<g>
</g>
<g>
</g>
</svg>
