<?xml version="1.0" encoding="iso-8859-1"?>
<!-- Generator: Adobe Illustrator 19.0.0, SVG Export Plug-In . SVG Version: 6.00 Build 0)  -->
<svg version="1.1" id="Capa_1" xmlns="http://www.w3.org/2000/svg" xmlns:xlink="http://www.w3.org/1999/xlink" x="0px" y="0px"
	 viewBox="0 0 512 512" style="enable-background:new 0 0 512 512;" xml:space="preserve" fill="#3faecc">
<g>
	<g>
		<g>
			<path d="M435.2,34.133h-17.067v-25.6c0-4.713-3.82-8.533-8.533-8.533s-8.533,3.82-8.533,8.533v25.6H384v-25.6
				C384,3.82,380.18,0,375.467,0s-8.533,3.82-8.533,8.533v25.6h-17.067v-25.6c0-4.713-3.82-8.533-8.533-8.533
				S332.8,3.82,332.8,8.533v25.6h-17.067v-25.6c0-4.713-3.82-8.533-8.533-8.533s-8.533,3.82-8.533,8.533v25.6H281.6v-25.6
				C281.6,3.82,277.779,0,273.067,0c-4.713,0-8.533,3.82-8.533,8.533v25.6h-17.067v-25.6c0-4.713-3.82-8.533-8.533-8.533
				S230.4,3.82,230.4,8.533v25.6h-17.067v-25.6C213.333,3.82,209.513,0,204.8,0s-8.533,3.82-8.533,8.533v25.6H179.2v-25.6
				C179.2,3.82,175.38,0,170.667,0s-8.533,3.82-8.533,8.533v25.6h-17.067v-25.6c0-4.713-3.82-8.533-8.533-8.533S128,3.82,128,8.533
				v25.6h-17.067v-25.6c0-4.713-3.82-8.533-8.533-8.533s-8.533,3.82-8.533,8.533v25.6H76.8c-9.426,0-17.067,7.641-17.067,17.067
				v443.733c0,9.426,7.641,17.067,17.067,17.067h358.4c9.426,0,17.067-7.641,17.067-17.067V51.2
				C452.267,41.774,444.626,34.133,435.2,34.133z M435.2,494.933H76.8V51.2h17.067v25.6c0,4.713,3.82,8.533,8.533,8.533
				s8.533-3.82,8.533-8.533V51.2H128v25.6c0,4.713,3.82,8.533,8.533,8.533s8.533-3.82,8.533-8.533V51.2h17.067v25.6
				c0,4.713,3.82,8.533,8.533,8.533s8.533-3.82,8.533-8.533V51.2h17.067v25.6c0,4.713,3.82,8.533,8.533,8.533
				s8.533-3.82,8.533-8.533V51.2H230.4v25.6c0,4.713,3.82,8.533,8.533,8.533s8.533-3.82,8.533-8.533V51.2h17.067v25.6
				c0,4.713,3.821,8.533,8.533,8.533c4.713,0,8.533-3.82,8.533-8.533V51.2h17.067v25.6c0,4.713,3.82,8.533,8.533,8.533
				s8.533-3.82,8.533-8.533V51.2H332.8v25.6c0,4.713,3.821,8.533,8.533,8.533s8.533-3.82,8.533-8.533V51.2h17.067v25.6
				c0,4.713,3.82,8.533,8.533,8.533S384,81.513,384,76.8V51.2h17.067v25.6c0,4.713,3.82,8.533,8.533,8.533s8.533-3.82,8.533-8.533
				V51.2H435.2V494.933z"/>
			<path d="M409.6,136.533H102.4c-4.713,0-8.533,3.82-8.533,8.533s3.82,8.533,8.533,8.533h307.2c4.713,0,8.533-3.821,8.533-8.533
				S414.313,136.533,409.6,136.533z"/>
			<path d="M409.6,187.733H102.4c-4.713,0-8.533,3.82-8.533,8.533s3.82,8.533,8.533,8.533h307.2c4.713,0,8.533-3.82,8.533-8.533
				S414.313,187.733,409.6,187.733z"/>
			<path d="M409.6,238.933H102.4c-4.713,0-8.533,3.82-8.533,8.533S97.687,256,102.4,256h307.2c4.713,0,8.533-3.82,8.533-8.533
				S414.313,238.933,409.6,238.933z"/>
			<path d="M409.6,290.133H102.4c-4.713,0-8.533,3.82-8.533,8.533s3.82,8.533,8.533,8.533h307.2c4.713,0,8.533-3.82,8.533-8.533
				S414.313,290.133,409.6,290.133z"/>
			<path d="M409.6,341.333H102.4c-4.713,0-8.533,3.82-8.533,8.533s3.82,8.533,8.533,8.533h307.2c4.713,0,8.533-3.82,8.533-8.533
				S414.313,341.333,409.6,341.333z"/>
			<path d="M409.6,392.533H102.4c-4.713,0-8.533,3.821-8.533,8.533s3.82,8.533,8.533,8.533h307.2c4.713,0,8.533-3.82,8.533-8.533
				S414.313,392.533,409.6,392.533z"/>
		</g>
	</g>
</g>
<g>
</g>
<g>
</g>
<g>
</g>
<g>
</g>
<g>
</g>
<g>
</g>
<g>
</g>
<g>
</g>
<g>
</g>
<g>
</g>
<g>
</g>
<g>
</g>
<g>
</g>
<g>
</g>
<g>
</g>
</svg>
